# xmcd CD database file
#
# Track frame offsets:
#	150
#	5015
#	6031
#	11602
#	18507
#	28078
#	35554
#	38404
#	39359
#	43655
#	49264
#	58984
#	62075
#	67245
#	76096
#	88257
#	91699
#	113209
#	115814
#	118833
#	121822
#	133149
#	143095
#	152250
#	162527
#	172252
#	180662
#	191758
#	202367
#	207616
#	213768
#	217026
#	222447
#	229090
#	234651
#	246325
#	258139
#	270094
#
# Disc length: 3756 seconds
#
# Revision: 1
# Processed by: cddbd v1.5.2PL0 Copyright (c) Steve Scherf et al.
# Submitted via: CDex 1.51
#
DISCID=2c0eaa26
DTITLE=Philipp Moehrke - Jazz Piano Solo Concepts
DYEAR=2000
DGENRE=Jazz
TTITLE0=Swing It!, Tonart F
TTITLE1=Spread Voicings Beispiel
TTITLE2=Minor Blue, Tonart D-Moll
TTITLE3=Brazilian Mood, Tonart F-Dur
TTITLE4=Brazilian Mood Play-Along, Tonart F-Dur
TTITLE5=Black Nocturne, Tonart A-Moll
TTITLE6=Shearing-Technik Übung Moll und Dur Beispiel
TTITLE7=Shearing-Technik Harmonisierte Melodie Beispiel
TTITLE8=Ton Repetieren Übung Beispiel
TTITLE9=Stompin', Tonart C-Dur
TTITLE10=Waltz For Dario, Tonart C-Dur
TTITLE11=Walking Bass Übung Beispiel
TTITLE12=Approach Notes Übung Beispiel
TTITLE13=Biflat (schnell), Tonart Bb-Dur
TTITLE14=Biflat (langsam), Tonart Bb-Dur
TTITLE15=Improvisationsbeispiel Tender Moments, Tonart F-Dur
TTITLE16=Tender Moments, Tonart F-Dur
TTITLE17=Improvisationsbeispiel Soul Food, Tonart F
TTITLE18=Bebop-Scale-Übungen Beispiel
TTITLE19=Pentatonik-Übungen Beispiel
TTITLE20=Soul Food, Tonart F
TTITLE21=Soul Food Play-Along, Tonart F
TTITLE22=Modal Jazz Tune, Tonart D
TTITLE23=Shana, Tonart Eb-Dur
TTITLE24=Jazz Flowers, Tonart C-Dur
TTITLE25=Oscar's Blues (schnell), Tonart G
TTITLE26=Oscar's Blues (langsam), Tonart G
TTITLE27=Sunrise, Tonart Eb-Dur
TTITLE28=Montuno Übung Beispiel
TTITLE29=Cuban Jazz, Tonart C-Dur
TTITLE30=BeBop-Etüde (schnell), Tonart F-Dur
TTITLE31=BeBop-Etüde (langsam), Tonart F-Dur
TTITLE32=Quintenzirkel Übung Beispiel
TTITLE33=Swing Grooves Übung Beispiel
TTITLE34=Swing Groove A (1)
TTITLE35=Swing Groove A (2)
TTITLE36=Swing Groove B (1)
TTITLE37=Swing Groove B (2)
EXTD=YEAR: 2000
EXTT0=
EXTT1=
EXTT2=
EXTT3=
EXTT4=
EXTT5=
EXTT6=
EXTT7=
EXTT8=
EXTT9=
EXTT10=
EXTT11=
EXTT12=
EXTT13=
EXTT14=
EXTT15=
EXTT16=
EXTT17=
EXTT18=
EXTT19=
EXTT20=
EXTT21=
EXTT22=
EXTT23=
EXTT24=
EXTT25=
EXTT26=
EXTT27=
EXTT28=
EXTT29=
EXTT30=
EXTT31=
EXTT32=
EXTT33=
EXTT34=
EXTT35=
EXTT36=
EXTT37=
PLAYORDER=
